<svg id="Capa_1" data-name="Capa 1" xmlns="http://www.w3.org/2000/svg" viewBox="0 0 1088 476"><defs><style>.cls-1,.cls-4,.cls-7{fill:#d8d8db;}.cls-2{fill:#2d042d;}.cls-3{fill:#6e242b;}.cls-10,.cls-3,.cls-4,.cls-5,.cls-7,.cls-8,.cls-9{stroke:#000;}.cls-10,.cls-12,.cls-3,.cls-4,.cls-5,.cls-7,.cls-8,.cls-9{stroke-miterlimit:10;}.cls-3,.cls-4,.cls-5{stroke-width:5px;}.cls-5{fill:#512151;}.cls-10,.cls-6{fill:#7c2d33;}.cls-7{stroke-width:2px;}.cls-8{fill:#823d43;}.cls-11{fill:#e1cb1a;}.cls-12{fill:#9d33a2;stroke:#18002e;}.cls-13{fill:#06002e;}</style></defs><path class="cls-1" d="M536.86,244.21c-2.05.48-4.07,1.06-6.06,1.7L524,247.82a5.14,5.14,0,0,0-6.12-2.23l-1.08.3a5.37,5.37,0,0,0-1-1,6.22,6.22,0,0,0-2.31-4.59c0-.14-.08-.27-.12-.4,1.66-3.54-.15-8.76-5-8.37l-.74.06c2.29-3.48.17-9.74-4.67-9.09l-6.5.87q2.67-1.26,5.4-2.43c3.06-1.3,3.4-5,2-7.72l3.21-1.49c6.28-2.9,1.55-11.63-4.44-10.51q-4.07.75-8.14,1.26a6,6,0,0,0-.29-3.08c1.08-2.67-.69-6.08-3.54-7.43a6.57,6.57,0,0,0-5.52-5.11l.28-.15a5.08,5.08,0,0,0,2.66-4l6.74-3.66c5.84-3.17,1.8-12.06-4.43-10.52l-.29.07a5.84,5.84,0,0,0-4.2-8.78,5.5,5.5,0,0,0-1.46-1.38,6.33,6.33,0,0,0,2.48-5.81l6.85-4.46a5.89,5.89,0,0,0,2.52-6.05l4.33-3.46a4.59,4.59,0,0,0,1.9-4.52,5.92,5.92,0,0,0-2.34-5.91,62.16,62.16,0,0,0,10.06-13.59,5.72,5.72,0,0,0-1.53-7.33l11.73-3.4c7.3-2.12,4.08-12.16-3.06-11.1q-23.89,3.54-47.57,8.22c3.39-3,1.2-9.77-4-10.08-7.11-.42-14.22-.72-21.33-1,5.42-2.72,2.11-11.55-4.5-10.57L354.53,92.16A4.51,4.51,0,0,0,350.88,95h-1.26c-5.66,0-7,6.71-4,9.88q-6.36,2-12.69,4.19c-7,2.38-4.2,12.85,3.06,11.1q29.44-7.1,59.06-13.36c3.64.1,7.27.18,10.91.23l-1.13.62-1.46.83a286.13,286.13,0,0,0-43.95,15.17c-6.45,2.89-1.43,11.41,4.43,10.51l8.51-1.29a5.3,5.3,0,0,0,6.32,2.61c4-1.21,8.07-2.38,12.12-3.54-1.62,4,1.06,9.27,6.48,7.7l18.6-5.39a6.3,6.3,0,0,0,1.18,8.52,5.73,5.73,0,0,0,.51,2.14l-54.07,26.61c-5.76,2.83-1.66,13,4.43,10.51,2.12-.85,4.26-1.67,6.39-2.5-1.16,1.46-2.29,3-3.35,4.5l-6.76,3.39c-4.18,2.1-3.42,6.73-.64,9.1q-5.19,2.9-10.25,6.05a6,6,0,0,0-1.79,1.65c-4.29,3.69-.57,11.31,5.36,9.85l2.45-.6q-3,1.31-6,2.5c-6.79,2.68-3.87,13.79,3.06,11.09l1.88-.71a5.5,5.5,0,0,0,7.06,1.28l3.27-1.72-.93,4.93c-.51,2.69.91,6.34,3.75,7.15l-2.83,1.68c-2.75,1.49-5.49,3-8.18,4.58-6.88,4-13.29,8.9-16.91,16.18-2.08,4.17,1.41,10.16,6.49,8.45q25.56-8.59,50.13-19.71Q381.59,264,362.38,277.84c-4.83,3.49-2.16,13,4.43,10.51Q389,280,411.56,273q-3.48,12.09-6.26,24.38l-.14.08a5.4,5.4,0,0,0-2.65,5.25,5.68,5.68,0,0,0-3.46,7.57,10.31,10.31,0,0,0-1.05,3.91l-6.56,2.25c-5.77,2-5.31,11.68,1.45,11.3-1.39.82-2.79,1.64-4.16,2.51-5.05,3.19-2.62,9.93,2.43,10.57a6.83,6.83,0,0,0,0,6.17l-5.58,1.36a5.3,5.3,0,0,0-2.73,1.59l-10.55,1.17c-5,.55-6.63,6.11-4.75,9.3q-2.58.54-5.16,1l-16.84,2.8c-7.32,1.22-4.17,12.22,3.06,11.1,4.93-.77,9.88-1.56,14.79-2.46L396,367.43a5.73,5.73,0,0,0,2.41.06l13.1-2.53a2.8,2.8,0,0,0,.29,0,554.88,554.88,0,0,0,89.3-13.19,4.94,4.94,0,0,0,3.06-2.1q8-2.57,15.74-5.73a26.2,26.2,0,0,0,2.81-.9c6.62-2.58,4.51-11.05-1.89-11.15a3.24,3.24,0,0,0-.46-.05h-1.11a5.47,5.47,0,0,0,.35-5.67q3.5-5.84,6.57-11.93c1.85-3.67-.34-8.88-5-8.66-3.28.16-6.55.26-9.82.33a5.59,5.59,0,0,0-2-2,6,6,0,0,0-1.65-2.63A40.18,40.18,0,0,0,516,290.93a46.87,46.87,0,0,0,2.61-4.46,5.68,5.68,0,0,0-1-6.9,7.25,7.25,0,0,0-1.15-1.59c1.74-.87,3.46-1.77,5.16-2.72a5.43,5.43,0,0,0,2.52-6.38l8.66-5.73a6,6,0,0,0,2.41-6.53l4.69-1.31C547.06,253.3,544.06,242.53,536.86,244.21Zm-79.6,70.85a6.7,6.7,0,0,0,.91,2.36L452.29,320l-2.47.13a6.31,6.31,0,0,0-.11-3.11l6.9-1.76Zm40.6-59.92-.14,0,.45-.17a6.2,6.2,0,0,0,2-1.16,5.12,5.12,0,0,0,.56.58Zm-31.8,42.46a5.16,5.16,0,0,0,3.33,2.49L454.2,304Q460.22,301,466.06,297.6ZM438.66,230a48.62,48.62,0,0,0,4.33-6.89,6.43,6.43,0,0,0,.52-4.35c.55-1.22,1.09-2.45,1.65-3.66a5.89,5.89,0,0,0,.29-.8,56.32,56.32,0,0,0,5.73-12.23,5,5,0,0,0-.15-3.64q5.76-.53,11.52-.88a6.3,6.3,0,0,0,.05,3.42,5.54,5.54,0,0,0-.06,5.33L459,207.78c-4.85,2-5.34,8.57-1.17,10.65.09.16.18.32.28.47-.6,3.38,1.3,7.23,5.42,6.77l6.24-.69.22.24-.94.62a5.77,5.77,0,0,0-1.49,8.44c-1.93.9-3.87,1.75-5.84,2.55-4.73,1.91-5,6.9-2.34,9.52a6.36,6.36,0,0,0-.48,5.22c-5.7-2.48-12.14-.43-17.82,1-4.07,1-8.12,2.15-12.17,3.27Q433.38,242.82,438.66,230Zm23.08,37.34a3.21,3.21,0,0,0,.52.11,4.92,4.92,0,0,0,4.81,2.65l.43,0a5.68,5.68,0,0,0,5.1,1.48l-19.78,13.06a6.14,6.14,0,0,0-2.19,2.42c-3.24.25-6.48.59-9.7,1,2.13-1.64,4.22-3.32,6.24-5.1C450.63,280,457.7,273.71,461.74,267.37Zm-46.37-7.59c-5.68,1.69-11.33,3.48-17,5.31q5.7-4.44,11.36-8.95c3.09-2.48,6.32-4.94,9.54-7.49q-1.92,5.5-3.71,11.06Zm9.31,9.26q6-1.73,11.94-3.34c1.93-.52,9.77-3.39,14.43-3.84-8.45,11.39-19.92,19.87-32,27.35Q421.64,279.06,424.68,269Z"/><path class="cls-2" d="M422.64,285.23a6.82,6.82,0,0,0-2.62-5.37c.35-.73.7-1.45,1.09-2.17,2.33-4.39-1.71-9.22-5.81-8.7a5.81,5.81,0,0,0-7.85-2.31c-3.63,1.86-7.19,3.83-10.72,5.85a5.6,5.6,0,0,0-.7.2,5.38,5.38,0,0,0-2,.57l-9.05,4.62a5,5,0,0,0-2.86,3.64,5.92,5.92,0,0,0-1.64,8.24q-5.76,8.16-12,15.94l-.32.45a287.71,287.71,0,0,0-46.78,1.74l9.32-6.76c4.88-3.54,2.23-12.77-4.43-10.51l-.46.15q2.7-4.28,5.38-8.56a5.6,5.6,0,0,0,.9-2.61c2.74-1.12,5.53-2.11,8.37-3l10.9-2.76a5.18,5.18,0,0,0,3.77-3.13l2.75-.85c5.91-1.82,5.2-11.92-1.53-11.3q-32.72,3-65.48,5.55c2.94-4.54,7.11-8.63,10.22-12.36q9.53-11.45,19.07-22.88a.21.21,0,0,1,0-.06l6.27-3.56,25.81-14.68c6.64-3.77,15.23-6.82,17.83-14.64,1.44-4.34-3-8-7.08-7.07a276.66,276.66,0,0,0-27.88,8.19l-.05,0c.74-1.27,1.46-2.56,2.14-3.88a5.88,5.88,0,0,0-4.25-8.57q4.08-1.8,8.12-3.75c4.12-2,3.33-7.74,0-9.93a26.43,26.43,0,0,0-8-3.42c.32-.49.64-1,1-1.48l38.15-5.41c6.45-.91,4.87-11.51-1.53-11.3q-11.94.39-23.87-.05c5.76-7.18,11.4-14.35,15.4-22a6.55,6.55,0,0,0,.44-4.38l1.62-1.43c3.22-2.9,1.52-8.59-2.54-9.62h0a6.08,6.08,0,0,0,.14-2.37c1-.41,1.93-.84,2.91-1.22,6.72-2.65,4.16-13.37-3.06-11.1l-7.06,2.22a4.94,4.94,0,0,0-5-3.18l-4.82.45c.52-3.17-1.14-6.46-5.37-6.2q-3.33.21-6.65.47c-.76-3.31-4.54-6.33-8.65-4.45l-7.11,3.23a6.41,6.41,0,0,0-3.31-.29q-16.06,2.7-32,6.25a5.8,5.8,0,0,0-3.24,0l-4.63,1.18a5.84,5.84,0,0,0-4.89-1.23A101,101,0,0,0,237,108.11a5.48,5.48,0,0,0-2.67,3.61l-25,3.38c-6.55.88-4.76,11.25,1.53,11.3l10.19.08c-4.67,3.34-1.67,11.32,4.86,10.18q11.75-2.06,23.52-3.86c-2.06,2.84-1.08,7.91,2.23,9.18-6.14,2.75-3.26,12.4,3.74,10.83A206.52,206.52,0,0,0,294,140l13.11-4.33a5.79,5.79,0,0,0,3.68-4.06c3-1.66,5.91-3.38,8.81-5.19a5.93,5.93,0,0,0,1.75-1.7l15.29-2.31c-.22.31-.44.62-.65,1a5.94,5.94,0,0,0,.48,6.5q-11.64,9.25-23.92,17.67a5.64,5.64,0,0,0,.44,9.92l-43.15,6.12c-6.72.95-4.58,10.95,1.53,11.3l33.27,1.94,10.79.63c-.29.74-.56,1.49-.82,2.25-13.5,5.08-27.35,9.22-41.18,13.33-6.35,1.88-4.91,10.94,1.53,11.3l9.32.53c-4.86,2.7-1.69,11.62,4.86,10.46l3.69-.65a6,6,0,0,0,1.69.36c-3.81,2.51-2.56,7.3.6,9.3a6.48,6.48,0,0,0,1.73,4.52l-27.87,15.84c-4.13,2.35-3.53,9.47,1.38,10.51l1.82.39a205.21,205.21,0,0,1-24.37,12.31c-5.27,2.23-2.55,11.1,2.91,10.72q12.69-.88,25.37-1.84a5.44,5.44,0,0,0,3.88,3.73l20,3.69c-9.44,9.26-19.13,18.54-27,29-4.22,5.61-7.66,11.89-8.8,18.9-1.06,6.57,1.32,11,6.9,13.8-4.08,2.93-2.29,10.09,3.4,10.4q7.38.39,14.76.67l-9,2.23c-6.2,1.53-5,11.7,1.52,11.3l44.71-2.72c2,0,4,0,6,0a5.3,5.3,0,0,0,6.28.48l1.32-.75q7.76-.45,15.48-1.5h0l1.53-.2a4.6,4.6,0,0,0,4-3.85q8.65-1.19,17.25-2.8a4.88,4.88,0,0,0,4.07-4.59L396,348.9c5.07-2.1,4.91-8.6,1.26-10.68a6.2,6.2,0,0,0-2.3-5.61c1.16-1.51,2.38-3,3.67-4.42a6,6,0,0,0,1.4-4.87c1.54-1.42,3-2.88,4.47-4.42a5.61,5.61,0,0,0,1.63-3.93,5.84,5.84,0,0,0,7.93-1.86A60.72,60.72,0,0,0,424,290.62,6.37,6.37,0,0,0,422.64,285.23Zm-76.95,64.6c-.32.19-.64.37-.95.57a5.32,5.32,0,0,0-1.68-3l3.19-.07A6.18,6.18,0,0,0,345.69,349.83Zm29.88-32.68a5.21,5.21,0,0,0,2-1.67l.83-.09a6.12,6.12,0,0,0,1.86,7,111.91,111.91,0,0,1-13.44,13c-11.3.3-22.61.65-33.92,1Q354.58,327.59,375.57,317.15Zm27.13-7.43a6.82,6.82,0,0,0-.34-.66c.23-.49.47-1,.69-1.48l.05-.06c0,.84.11,1.69.18,2.54A4.88,4.88,0,0,0,402.7,309.72ZM289.53,247.66a6.32,6.32,0,0,0-.93-.28l-.78-.16,3.95-2.25Zm41.61-99.28c1.91-1.4,3.81-2.83,5.69-4.27l-3.45,4.44Zm-19.49,46.55-4.85-.28c1.66-.56,3.31-1.14,5-1.72C311.71,193.59,311.68,194.26,311.65,194.93ZM275.88,331.75c1.53-5.69,5.15-10.72,8.95-15.13,5.66-6.57,11.77-12.81,17.95-19,.23-.1.46-.21.7-.34q3.5-2,7-3.94l-3.25,5.18a5.44,5.44,0,0,0-.08,5.46l-11.6,8.42c-5.23,3.79-2.19,11.87,4.43,10.51a275.83,275.83,0,0,1,47.88-5.43Q323.4,328.45,298,337.08q-6.25.07-12.51.07a24.76,24.76,0,0,1-7.58-.77C274.79,335.38,275,335,275.88,331.75Z"/><path d="M318.78,356l-15.27,0c-2.86-.12-5.72-.26-8.58-.44a5.43,5.43,0,0,0-3.09-1c1.36-3.36-.3-7.56-5.08-7.79l-12.16-.56c4.49-2.92,1.29-10-3.64-10.3A61.46,61.46,0,0,1,252.62,332a65,65,0,0,0,4.31-14.37c.52-3-.76-6.32-4-7.08l-3.5-.81,4.59-6.6c1.62-2.32.65-6.72-2.06-7.87L247,293.14a218.44,218.44,0,0,1,23.62-16.45c4.14-2.5,3.34-7.08.38-9.31.19-3.67-4-6.32-7.29-5.38a197.55,197.55,0,0,1-36.09,6.83q3.5-8.76,7-17.54c.74-1.85-.15-4.26-1.48-5.6l-6.75-6.82a5.75,5.75,0,0,0-5.6-1.48l-18,5.38a6.75,6.75,0,0,0-1.08-1.87c1.94-3.5.13-9-4.82-8.73q-12.76.65-25.54.62a6.42,6.42,0,0,0-1-3.5c3.32-1.61,6.7-3.08,10.16-4.37,5.65-2.11,5.42-11.76-1.53-11.3l-11.55.75c3.86-2.22,2.77-9.58-1.8-10.28a161.47,161.47,0,0,1-20.43-4.51,50.05,50.05,0,0,1,2.83-7.16q8.34-2,16.52-4.77a6,6,0,0,0,3.07-9l7-6.05a4.81,4.81,0,0,0,1.17-6.15,45,45,0,0,0,11.49-5.11,5.8,5.8,0,0,0,2.51-3l18.07-5.69a5.42,5.42,0,0,0,4-4.5l2.2-1.13a5,5,0,0,0,2.71-3.1l1-.13a5.94,5.94,0,0,0,7,7.35l.95-.16a5.08,5.08,0,0,0,6.4,2.72,90.06,90.06,0,0,0,21.39-10.1,5.44,5.44,0,0,0,2-7.61,6.16,6.16,0,0,0-3.08-5.37c1-.9,2-1.79,3-2.71,3.48-3.18.93-10.31-4.07-9.82q-8.16.81-16.28,1.89a5.17,5.17,0,0,0-3.05-.81q-10.14.39-20.18,1.74a5.44,5.44,0,0,0-5.21-3.08,4.65,4.65,0,0,0-1.55-.13q-9,.86-17.9,2.45l.9-.3c5.88-1.91,5.25-11.71-1.53-11.3-2,.12-3.91.26-5.87.4a4.4,4.4,0,0,0-3.15-4c1.2-3.61-1.88-8.76-7-7.93l-26.12,4.26a5.87,5.87,0,0,0-2-.33,6,6,0,0,0-2.84-.81l-.93,0a5,5,0,0,0-6.15-2.26q-6.08,2-12.2,3.69-2.49.45-5,1a5.09,5.09,0,0,0-1.91.87q-18.1,4.8-36.62,7.83c-5.66,1-5.06,7.79-1.15,10.27l-11.34,4.62c-4.66,1.9-5.35,8.59-1.38,10.67q-11.73,1.93-23.38,4.4c-4.74,1-5.49,8.24-1.66,10.49-4.39,2.37-3.49,10.2,1.62,10.79-1,2.9-.12,6.57,2.7,7.61a6.33,6.33,0,0,0,5.5,5.08l16.07,1.27q-12.65,4.16-25.62,7.3c-6.61,1.6-4.67,10.83,1.53,11.3l20.64,1.55-13.78,3.66a5.36,5.36,0,0,0-3.87,4.18c-5.81.42-6.81,8-2.94,10.6l-4,1.24a5.45,5.45,0,0,0-4,5.14L26.46,224c-5.17,2.49-2.83,8.84,1.54,10.29l-7.42,2.41c-7,2.28-4.19,12.76,3.05,11.1l18.14-4.18a4.46,4.46,0,0,0,4.52,2L81.34,241a5.63,5.63,0,0,0,1.25,1.28Q70,245.86,57.53,249.82c-5.83,1.86-5.21,12.18,1.53,11.31l1.52-.22h0c4.58-.6,9.15-1.26,13.72-2a6.57,6.57,0,0,0-.07,1.17,5.78,5.78,0,0,0,5.9,9.14c1.52-.26,3-.51,4.57-.75a6.8,6.8,0,0,0,.14,3.08l-13.69,6.49c-6.73,3.2-.86,13,5.81,9.94l6.26-2.84a4.89,4.89,0,0,0,3.47-.16q7.88-3.07,15.68-6.28l-1.05.81q-21.42,8.82-43,17.17c-6.77,2.6-4.25,13,3.06,11.09l8.22-2.2c-.87,3.56,1.61,8,5.5,7.52a7.32,7.32,0,0,0,.24,4.29,7.19,7.19,0,0,0-.61.87,4.83,4.83,0,0,0-2,4.76c-1.79.7-3.57,1.4-5.36,2.08-4.44,1.68-4.79,6.91-2.56,9.68-3.84.85-7.67,1.74-11.49,2.7-7.32,1.84-4.1,12.26,3.06,11.1l8.34-1.36a5.52,5.52,0,0,0,5.71,1.85l2.12-.49a6.87,6.87,0,0,0,2.21,1.82l-8.71,2.69c-6.31,1.95-4.94,10.94,1.53,11.3l14.26.82c-3.75,1.12-7.54,2.12-11.38,3-7.34,1.63-4.12,12.27,3.06,11.09q19.64-3.22,39.1-7.39a5.3,5.3,0,0,0,3.24-.25l1.27-.5a5.93,5.93,0,0,0,5.65,1.81l15.76-2.65a5.17,5.17,0,0,0,5.57,1.45,38.87,38.87,0,0,0,5.48-2l7.56-2.75a124,124,0,0,0,15-5.54c3.81-1.69,3.4-6.52,1-9.12a6,6,0,0,0,2.82-6.27,5.42,5.42,0,0,0,2.76-4.51c1.1-.58,2.19-1.18,3.28-1.78a5.75,5.75,0,0,0,2.58-6.1,5,5,0,0,0,0-.55,6.47,6.47,0,0,0,2.19.64,40.9,40.9,0,0,0,9.33-.2,4.61,4.61,0,0,0,2.91,1.52l2.18.34a5.6,5.6,0,0,0,.48,4.75c1.21,1.71,2.24,2.89,4.22,3.54-3.94,2.87-2.18,10.53,3.5,10.42L216,354a5.75,5.75,0,0,0,4.75,2.81c.47,0,.93,0,1.39,0a6.17,6.17,0,0,0,3,1.13c1.11.1,2.23.18,3.34.23.07,3,2.47,6.1,5.76,6.16l2,0a5.39,5.39,0,0,0,4.09,1.61h11.84a5.49,5.49,0,0,0,3.71,1.32h7.19a6.13,6.13,0,0,0,1.54.24q27,.79,53.94.19a5.41,5.41,0,0,0,4.2-1.91C325.77,362.72,324.44,356,318.78,356Zm-185-149.1a6,6,0,0,0,3,2.08q4.29,1.4,8.61,2.55L139,214.31a5.84,5.84,0,0,0-7.17-5c-.67.16-1.34.34-2,.51a5.4,5.4,0,0,0-.93-1.26l1.17-.08A5.8,5.8,0,0,0,133.73,206.93Zm88.62,44.23L213.4,273.7c-1.36,3.42,2.1,7.46,5.55,7.29a212.91,212.91,0,0,0,29.83-3.59q-7,5.06-13.56,10.6c-4.57-2.79-10.23-3.76-15.75-4.75l-12.94-2.31a12.89,12.89,0,0,0,3.88-7.47,6.84,6.84,0,0,0-1.81-5.91,5.85,5.85,0,0,0,3.25-8.36,14,14,0,0,0-4.86-5.68l13.66-4.08Zm-65.83-87.67a5.76,5.76,0,0,0-1.09,0,1.76,1.76,0,0,0-.14-.23l1.81-.29A5.4,5.4,0,0,0,156.52,163.49ZM150.33,309l.73-.24a6,6,0,0,0,.22,2.52l-1.45.71A6.2,6.2,0,0,0,150.33,309Zm-6.15,6.43,2.11-.49a5.13,5.13,0,0,0,1-.35,5.65,5.65,0,0,0-.41,2.3C146,316.41,145.08,315.91,144.18,315.44Zm11.17-26.37a6.17,6.17,0,0,0-.51-1.44l.67-.6.31,0c.94-.21,1.88-.45,2.82-.68C157.54,287.23,156.44,288.14,155.35,289.07ZM124.9,347.55l-6.14,1.34,6-1.84A4.24,4.24,0,0,0,124.9,347.55Zm68.45-86.81a6.14,6.14,0,0,0-2.27.71c-3.27,1.83-6.6,3.5-10,5l-2.17,0q3.88-3.27,7.81-6.49a54.32,54.32,0,0,1,6.93.54ZM90.62,307.11l-1.81,1.18-2.06.25c1.24-.53,2.46-1.08,3.69-1.62C90.49,307,90.56,307,90.62,307.11ZM219.93,303c-2.39,1.94-2.06,5.46-.31,7.72-1,.26-1.91.51-2.76.69l-.14,0a5.88,5.88,0,0,0-2.25-1.23l-1.93-.57a6.63,6.63,0,0,0-1.21-3.52c0-.07,0-.13,0-.2l4.33-1.84c5.93-2.53,2.24-9.69-2.78-10.49,4.52.53,10.62,1,14.76,3.13Zm-8.72-9.43q-3.78.53-7.47,1.36a5.92,5.92,0,0,0-3.28-3.43l9.45,1.69c.75.13,1.62.25,2.56.36A5.91,5.91,0,0,0,211.21,293.57Zm39,51.38a5.39,5.39,0,0,0-3.34-1.3l-4.22-.12a6.22,6.22,0,0,0-.58-3.67,79.29,79.29,0,0,0,10.29,4.1Zm-10.31-13a6.47,6.47,0,0,0-.31,5.16,5.87,5.87,0,0,0-.83-.42,5.15,5.15,0,0,0-5.32-3.9l-10.58.66a6.81,6.81,0,0,0-1.16-4q3.09-.78,6.18-1.5a4.88,4.88,0,0,0,4.13-5.19,7.34,7.34,0,0,0,2.72-2.26l2.36-2.07a4.31,4.31,0,0,0,1.26.5l6.18,1.44A55.4,55.4,0,0,1,239.89,332Zm-.5-27.94c-.57-.25-1.15-.47-1.72-.69l1.41-1.14,1.22.51ZM178.21,149.94a6.45,6.45,0,0,0-.76-.47q5.49-1.4,11-2.75Zm-44.62,48.12a5.5,5.5,0,0,0-3.54-1.08l-6.23.12c.47-.55,1-1.09,1.41-1.64a6.79,6.79,0,0,0,3.8.56c1.81-.25,3.61-.54,5.4-.84Q134,196.61,133.59,198.06Z"/><path class="cls-3" d="M330.29,260.15S321.2,363.68,343,361.86c0,0,47.23,0,49-32.69,0,0,5.45-41.78,3.63-45.41,0,0,14.54-29.06,23.62-7.26,0,0-5.45,67.2,14.53,74.47s59.94,5.44,69-21.8c0,0,1.81-45.41-29.06-89,0,0-16.35-27.25-9.08-72.65,0,0,5.44-69-36.33-67.21,0,0-49-14.53-72.65,20,0,0-25.43,56.31-20,81.74C335.74,202,328.47,256.52,330.29,260.15Z"/><path class="cls-4" d="M379.33,252.88s40-3.63,61.75-50.85c0,0,10.9-45.41-20-49.05,0,0-38.14-3.63-47.22,65.39C373.88,218.37,370.25,252.88,379.33,252.88Z"/><path class="cls-4" d="M312.12,307.37s30.88-41.77,61.76-5.45c0,0,27.24,40-18.16,58.13,0,0-61.76,9.08-69,0,0,0-25.42-101.72-23.61-107.17,0,0-21.79-101.71-14.53-105.34,0,0,18.16-38.15,79.92-34.51,0,0,52.67-3.64,41.78,50.85,0,0-9.09,21.8-36.33,27.25,0,0-34.51,10.9-34.51,14.53,0,0-10.9,12.71,5.45,12.71,0,0,34.51-14.53,45.41-7.26,0,0,32.69,12.71,5.45,50.85,0,0,1.81,7.27-38.15,7.27C317.57,269.23,303,289.21,312.12,307.37Z"/><path class="cls-5" d="M148.65,185.68s49,98.08,20,148.94c0,0-12.71,30.88-59.94,20,0,0-21.79-7.27-21.79-25.43,0,0,14.53-107.16,9.08-147.12,0,0-9.08-59.94,27.24-74.47,0,0,40-14.53,54.49,32.69,0,0,27.25,85.37,30.88,87.18,0,0-29.06-78.1-27.24-79.91,0,0,14.53-36.33,47.22-20,0,0,20,5.45,25.43,59.94,0,0,30.88,141.67,29.06,145.3,0,0,5.45,29.06-30.88,29.06,0,0-30.87,0-47.22-23.61,0,0-29.06-59.94-25.43-63.57C179.53,274.68,154.1,183.86,148.65,185.68Z"/><path class="cls-6" d="M888.18,395.91l-10.85.83a4.86,4.86,0,0,0-3.94-4.53l-.52-.07c-.08-3.45-3.1-7.07-7-5.61-5.69,2.15-11.5,3.89-17.35,5.5-1.14.13-2.27.27-3.41.42a5.89,5.89,0,0,0-7-6.09c-1.78.31-3.57.59-5.35.88,1.65-.73,3.31-1.45,5-2.16,5.81-2.53,1.67-12.07-4.29-10.19-3.45,1.08-6.88,2.2-10.31,3.3a5.42,5.42,0,0,0-3.1-.65,4.46,4.46,0,0,0-1.32,0l-30.2,3.67a5.19,5.19,0,0,0,.35-.66A178.18,178.18,0,0,0,814,374.24a5.58,5.58,0,0,0-.26-10.72,4.22,4.22,0,0,0-.37-1c5.83-2.77,3.1-12.24-3.66-10.47-1.59.42-3.18.82-4.78,1.23l-2.73.15a7.21,7.21,0,0,0,.51-.76c5.61-1.75,11.24-3.46,16.84-5.28,6.81-2.21,4.05-12.38-3-10.75l-2.71.64a6.15,6.15,0,0,0-.94-5.54,5.58,5.58,0,0,0-.1-9.45c-7.92-5.08-16.79-6.84-25.9-7.65,1.32-3.65-1.61-8.79-6.63-7.61-.6.14-1.2.24-1.8.37a4.45,4.45,0,0,0-3.29-2.18q1.8-1.46,3.63-2.86l.48-.08a4.55,4.55,0,0,0,3.57-3c4.57-3.43,9.16-6.83,13.46-10.47,2.8-2.37,1.74-7-1.13-8.76-6.31-3.76-13.07-4-19.77-2.67-1.06.1-2.12.22-3.17.35a6.43,6.43,0,0,0-.68-6c2.67-1.14,5.46-2.51,7.13-4.7a286.81,286.81,0,0,0,46.41-9.56c6-1.76,4.91-10.94-1.48-11-3.43,0-6.86,0-10.29,0a5.89,5.89,0,0,0-6.76-4.32c-3.44.54-6.85,1.2-10.24,1.92,1.82-3.51.35-8.57-4.55-8-1.42.17-2.83.37-4.25.54a11.7,11.7,0,0,0,.71-1.79c1-3.31-1.78-7.29-5.38-7.06-2.64.17-5.32.49-8,.85a5.64,5.64,0,0,0-.25-6.18,6,6,0,0,0-7-5.75c-1.23.19-2.45.41-3.68.62a5.8,5.8,0,0,0-1.72-8.46c.65-.61,1.29-1.24,1.89-1.92a5.5,5.5,0,0,0,1.27-5.58q15.15-3,30.34-5.68c7.06-1.26,4.06-12-3-10.75l-9.83,1.72c2.52-3.35.76-9.81-4.27-9.16l-1.48.2h-.07c-6.27.85-12.47,2-18.65,3.21,9.9-2.61,19.84-5.09,29.78-7.52a4.88,4.88,0,0,0,4-4.53q7.5-2,14.82-4.55c5.51-1.94,5.16-11.7-1.49-11l-4.6.54a124.89,124.89,0,0,0,14.42-6.15c6-3,1.55-11.23-4.3-10.19q-12.88,2.31-25.73,4.86l5.92-2a4.59,4.59,0,0,0,.64-.28l3.2-.75c3-.71,4.18-3.63,3.87-6.28h0c6.15-1.29,4.78-11.19-1.48-10.95l-.86,0a128.44,128.44,0,0,0,13.69-7,5.38,5.38,0,0,0,2.6-3.68c5.86-2.55,2.93-12-3.77-10.46-1.61.37-3.21.81-4.81,1.3-6-1.42-13.29.17-18.86,1.47a5.26,5.26,0,0,0,.3-1.6c22.82-4.33,45.53-9.18,68-15.31,7-1.93,4-11.94-3-10.76-6,1-12,2.19-18,3.39l.38-.26c4.57-3.28,2.86-9.9-2.81-10.39-17-1.45-33.82,0-50.66,1.86a6.36,6.36,0,0,0,.79-1.88c.57-.18,1.13-.36,1.64-.54,9.26-3.35,17.72-8.32,20.38-18.45,1.15-4.39-2.75-7.59-6.86-6.86-11,2-21.8,4.56-32.54,7.49-5-.49-12.35,3-15.8,4.09-5.8,1.86-11.52,4.11-17.37,5.81-4.66,1.46-4.8,6.88-2.21,9.53q-3.74,1.64-7.45,3.32-11.5,3.16-22.86,6.92c-5.73,1.9-5.08,11.22,1.48,11,7.61-.31,15.17-.93,22.71-1.8a4.9,4.9,0,0,0,5,3.87,53.65,53.65,0,0,0-7.86,3.6c-16.86,3.87-33.61,8.26-50.35,12.59-4.41,1.14-5,6.19-2.46,9.32s7.34,2.83,10.81,2.54c1.8-.16,3.59-.39,5.38-.66a5.11,5.11,0,0,0,2.72,1.43c.28.06.56.09.85.14a5.84,5.84,0,0,0,2.59,6,24.45,24.45,0,0,0,6.44,3,5.46,5.46,0,0,0,2,4.6,5.93,5.93,0,0,0-.69,2.23c-2.46.61-4.9,1.27-7.3,2-5.45,1.74-12.1,4.08-12.73,10.62-.32,3.39,2.65,5.21,5.51,5.42C654.85,161.58,628,166.32,601.22,171c-6.12,1.06-4.78,11.62,1.49,11,5.26-.56,10.51-1.22,15.76-1.64-.67,3.14,1.12,6.71,5.25,6.68a184.37,184.37,0,0,0,20.78-1.44A58.41,58.41,0,0,0,639,189q-6.5,1.46-13,2.89c-4.46,1-4.88,5.63-2.8,8.52a72.43,72.43,0,0,0-7.89,2c-5.65,1.81-5.06,11.75,1.48,11l24.72-3c.07,2.91,2,5.84,5.43,5.55l.81-.07c0,.16.07.33.12.49l-1,.22a4.71,4.71,0,0,0-4,5,21.64,21.64,0,0,0-5.89,1.5c-.63.11-1.26.21-1.89.33a4.79,4.79,0,0,0-3.07,2.14c-.14.15-.25.3-.37.45l-3.2,1a5.61,5.61,0,0,0-2.37,9.32,24.37,24.37,0,0,0-8,8c-2.38,3.92.79,8,4.81,8.39,3.49.36,7,.44,10.53.45a4.44,4.44,0,0,0,1.75,1.31c.1.14.21.26.32.39-10.2-.19-21.16,3.7-30.65,5a4.42,4.42,0,0,0-2.87,1.54q-4.11,0-8.22.11a5.46,5.46,0,0,0-5.92-2.36,83,83,0,0,0-12.26,3.54,6.06,6.06,0,0,0-.85.41c-6.1,1.89-12.19,3.85-18.21,6-4.74,1.7-5.84,9.58,0,10.75,11.46,2.3,24.39.73,36.07-.6a6.24,6.24,0,0,0,1.34.28c6.5.56,13,1.09,19.51,1.63-.87,3.24,1.14,7.42,5.25,7.41a72.14,72.14,0,0,1,8.47.44c-2,2.19-5.65,4.23-7,5.3-4.34,3.34-3,10,2.81,10.39l1.24.08c-8,1.39-15.82,3.4-23.71,5.11-4,.88-4.83,5.77-3,8.72l-1.35.53c-6.57,2.61-4.2,12.3,3,10.75,2.45-.53,4.88-1.11,7.31-1.71a5.13,5.13,0,0,0,2.59.37c10.82-1,21.6-2.41,32.38-3.83a6.29,6.29,0,0,0-.1,4.17c-2.95.35-5.92.71-8.88,1.1A417.58,417.58,0,0,0,583,339.12c-5.91,1.53-4.91,11.63,1.48,11q23.09-2.44,46.18-5.26c-2.51,3.48-1.5,9.39,4,8.94l2.82-.25a5.71,5.71,0,0,0,4.34,9.05,243.57,243.57,0,0,0,31.51-.15c-2.47,1-4.93,2-7.38,3-5.33,2.31-2.28,10.32,2.82,10.39h.35a3.31,3.31,0,0,0-.27.26l-3.08.87a5.1,5.1,0,0,0-3.92,5.78,67.94,67.94,0,0,0-11,6.22,6.09,6.09,0,0,0-1.32,8.52c-8,.76-15.91,2-23,5.08-5.68,2.48-1.94,9.86,2.81,10.39a82.61,82.61,0,0,0,8.58.51q-9.62,3-19.14,6.28c-6.71,2.32-4,12.83,3,10.75,11-3.31,22.42-4.24,33.78-5.61a5.86,5.86,0,0,0,5.41,5.23c9.93.74,17.28-3.07,26.56-5.56,1.43-.39,2.88-.74,4.32-1.11q6.57-1.15,13.17-2.18a5.17,5.17,0,0,0,4.22,1.25c-1.2.65-2.39,1.32-3.55,2a5.91,5.91,0,0,0-2.52,5.61c-.93.3-1.86.61-2.78.93a159.53,159.53,0,0,0-23,8.62c-3.6,1.71-3.35,6.45-.88,8.89-4.55.86-9.1,1.73-13.63,2.76-6.49,1.47-4.45,10.44,1.49,10.95,10.44.91,20.81-3.05,30.77-6.07,2.11-.46,4.22-.94,6.31-1.48,6.38-1.63,12.73-3.4,19.06-5.26q6.53-1.61,13.07-3.09a5.27,5.27,0,0,0,4.91,1.13,134.73,134.73,0,0,0,18.35-6c13.08-2.48,26.25-4.6,39.38-6.83l2.86-.16c11.6-.58,23.11-1.73,34.68-2.62,9.53-.74,19.58-.7,27.92-6,4.43-2.83,3-10.65-2.82-10.39-4.62.21-9.22.53-13.83.94a5.88,5.88,0,0,0,3.33-3.59c13.82-1.43,27.59-3.36,41.27-6C895.78,405.68,894.46,395.44,888.18,395.91Zm-211-201-3.39,1.34a4.11,4.11,0,0,0-1.45-.57ZM795.7,398.08a5.33,5.33,0,0,0-.6-3.88l4-.87a5.57,5.57,0,0,0,2,1.33,5.81,5.81,0,0,0,0,1.86Zm-123-90.38c1.68-.2,3.35-.42,5-.63,0,.18,0,.35,0,.53-1.48.19-3,.4-4.45.62C673.05,308,672.87,307.87,672.68,307.7ZM795,88.3a5.5,5.5,0,0,0-1,1.11l-.12,0a4.76,4.76,0,0,0-5.22-4c-3.91.31-7.81.7-11.7,1.14l.25-.17A5.61,5.61,0,0,0,779.79,82c9.82-1.06,19.65-2,29.5-2.31A73.62,73.62,0,0,0,795,88.3ZM642.22,273.36c-.69.27-1.37.55-2.05.84a4.39,4.39,0,0,0-1.35.91h-.28c-2.1-.06-4.27-.12-6.45-.29a5.5,5.5,0,0,0-1.66-2.31c1-.16,2-.3,3-.39a5.61,5.61,0,0,0,4.66-3.19l6.44-1.43A5.41,5.41,0,0,0,642.22,273.36Zm-2.78,13.12c1.43,0,2.85,0,4.25,0-2.69,1.43-3.51,5-2.56,7.57-1.47,0-2.94,0-4.41,0A14.26,14.26,0,0,0,639.44,286.48Zm13.94,18c3.94-.4,7.47-2.3,11.34-3.11a6.63,6.63,0,0,0,1,4.57,194.31,194.31,0,0,0-19.9-.16,4.58,4.58,0,0,0-.44-.7C648.09,304.92,650.74,304.73,653.38,304.45Zm77.76,39.93c-.74.8-1.48,1.61-2.2,2.43-8.13.38-16.25,1.06-24.36,1.8C713.41,347.11,722.27,345.74,731.14,344.38Zm-4.68,16q-8.34,1.15-16.68,2.08,7.43-1.85,14.93-3.38A4,4,0,0,0,726.46,360.35ZM654.1,254.76a15.58,15.58,0,0,0-3.49,9.16l-2.11,1.17c1.68-2.8.18-7.19-3.27-8.51-.72-.28-1.45-.51-2.19-.72Q648.58,255.33,654.1,254.76Z"/><path d="M1011.45,341c-14.32,1.21-28.58,2.77-42.81,4.6.27-2.7-1-5.57-3.69-6.27a6.48,6.48,0,0,0,.79-3.17l.89-.12h0c.52-.07,1-.13,1.54-.21,6.43-.89,5-11.92-1.54-11.39-2.26.19-4.51.31-6.77.4,2-3.58.13-8.91-4.82-8.77h0a5.61,5.61,0,0,0-5.24-3.6l-2.16-.13a7.06,7.06,0,0,0-.4-5.5l4.85-1.46c6.3-1.9,5-11.17-1.54-11.39h-.19c2.5-5.63,4.72-11.26,5.51-17,.33-2.38-.17-5.38-2.66-6.55l-.47-.2q2.9-3.54,5.8-7.07c3.28-4,1.09-9.44-4.1-9.9a115.14,115.14,0,0,1-11.92-1.7l12.6-1.08c7.11-.61,7.51-10.57.72-11.51l1.84-.61c6.7-2.11,4.5-11.69-1.87-11.35a6.15,6.15,0,0,0-2.19-4.77q4.11-9.53,7.28-19.44c3-1.29,6-2.62,8.94-4,5-2.39,2.76-11.5-2.93-10.81l-1.91.24c.05-.19.1-.38.14-.57,1.12-4.69-2.8-7.75-7.13-7.14a94.71,94.71,0,0,0-17.36,4.19,5.89,5.89,0,0,0-1-3.11L956,177.1c7.26-2,4.18-12.67-3.08-11.19q-18.48,3.78-36.56,9.05l-1.34-.47a62.86,62.86,0,0,0,12.62-14.62,5.25,5.25,0,0,0,.31-5.15c2.51-.87,5-1.75,7.5-2.66,7.13-2.58,4.24-12.29-3.08-11.18s-14.38,2.29-21.54,3.58l1.31-1c2.6-2,1.82-6.07,0-8.2-.28-.32-.56-.62-.85-.92,1.23-.44,2.46-.88,3.68-1.34,5.62-2.11,5.47-12.09-1.54-11.39l-9.2.92a6.27,6.27,0,0,0-6.13-5.14c.93-2.62.08-5.88-2.22-7.26,2.53-1.51,5-3.05,7.51-4.67a5.69,5.69,0,0,0,1.34-8.66c2.56-3.65-1.54-10-6.66-8.88L891,89.45a5.71,5.71,0,0,0-1.62-.08q-5,.55-10,1.16a6.18,6.18,0,0,0-3.75-1.84,5.28,5.28,0,0,0-1.45-1.53c.09-.13.19-.24.28-.37q5.26-1.23,10.5-2.55c4.1-1,4.92-4.75,3.59-7.64a4.74,4.74,0,0,0,1.24-2.71l2.58-1.11c4.82-2.07,3-9.33-1.39-10.59A28.34,28.34,0,0,0,883.19,61a7.14,7.14,0,0,0-5.58-1.44A4.81,4.81,0,0,0,873.83,56c-.26-2.92-2.59-5.89-5.78-5.82l-3,.09a6.62,6.62,0,0,0-1.25-4.44c6.42-1.13,4.89-11.65-1.58-11.38l-35.28,1.44,9.47-2.86c6-1.8,5.2-12.26-1.54-11.39L813,24.51q4.94-3.37,9.63-7.18c4.34-3.55.3-9.43-4.1-9.9a127.89,127.89,0,0,0-77.91,16.76c-5.24,3-2.59,10.38,2.93,10.8l12.53,1a7.61,7.61,0,0,0-.54.85q-17.25,4.7-34.19,10.54c-5.79,2-5.37,11.95,1.54,11.39l28.39-2.31c-.07.13-.14.25-.2.38L731.9,65c-6.54,2.78-1.43,11.51,4.46,10.6l14.81-2.31c-.66,3.47,1.34,7.57,5.49,7l16.19-2.12A5.85,5.85,0,0,0,777.66,81l3.4.14a5.24,5.24,0,0,0,.5.44l-3.27,1.86c-6.19,3.5-1.61,11.43,4.47,10.6,4.63-.64,9.25-1.31,13.87-2a5.12,5.12,0,0,0,.39,1.14,6.2,6.2,0,0,0,7.2,6.62l2.5-.36a6,6,0,0,0,1,1.47q-9,1.56-18,3.24c-6.33,1.19-5,12.13,1.55,11.39l13.26-1.5-22.7,8.39c-5,1.84-5.39,9.93-.63,11.25l-3,1.1c-6.93,2.55-4.29,12.87,3.08,11.18l6.63-1.52a5.86,5.86,0,0,0,4.08.5c2.5-.55,5-1.07,7.52-1.59a6.38,6.38,0,0,0,7.39,6.46q14.79-2.73,29.36-6.34a6.1,6.1,0,0,0,2.48,5.9l-1.08.26a5,5,0,0,0-4,6.49l-2.8.88c-6,1.86-5.24,11.79,1.54,11.39l4.62-.31a6,6,0,0,0,.63.08.5.5,0,0,0,0,.13c-3,2.76-2.65,8.86,1.21,10.14a4.88,4.88,0,0,0,1.54,1.56Q825,186.62,810,194.39c-5.06,2.62-2.76,11.07,2.92,10.8q25.3-1.19,50.54-3.38l-29.31,10.5a6.08,6.08,0,0,0-3.59,3.07q-5.61,1.22-11.19,2.55c-7.29,1.76-4.18,12.7,3.08,11.19,4.81-1,9.63-1.94,14.46-2.82a6.77,6.77,0,0,0,.17,5.18q-7.44,4.67-14.75,9.51a5.83,5.83,0,0,0,4.46,10.6q3.93-.84,7.81-1.8a5.76,5.76,0,0,0,5.11,1.43l18.45-4.06a5.8,5.8,0,0,0-.77,2.18q-5.22,1.95-10.42,3.94l-.1,0L789.16,268c-6.14,1.56-5.06,12.28,1.55,11.39l23-3.07a4.9,4.9,0,0,0,4.71,2.34l22.81-1.28c-2.14,3.87,1.66,9.19,6.74,8.36l6.57-1.07a5.11,5.11,0,0,0-.34,3.47l-2.65,1.19-4.47.38a5.78,5.78,0,0,0-6.19-2.43l-23,4.93a5.24,5.24,0,0,0-4.09,5.19,19.08,19.08,0,0,0-5.11,4.58,382,382,0,0,0-40.07,14.28c-5.33,2.25-5.62,12.26,1.55,11.39l54.82-6.68q-18.77,6-37.36,12.43c-7.13,2.48-4.24,12.46,3.08,11.19,12.63-2.2,25.3-4.1,38-5.79a6.53,6.53,0,0,0,1.48,3.43A5.34,5.34,0,0,0,828.7,346a360.81,360.81,0,0,0-46.63,21.45c-4.87,2.7-2.89,11.18,2.93,10.8q27.33-1.74,54.54-4.89a6.7,6.7,0,0,0,.62,1.26,7.57,7.57,0,0,0-.06,6.58c.1.25.21.49.32.72-4.73.86-9.47,1.71-14.2,2.61-6.51,1.23-4.88,11.42,1.54,11.39l18-.1a5.33,5.33,0,0,0,4.14,5.55l2.22.54-12.69,5.71-.13.07-10.19.28c-7.5.21-7.42,11.15,0,11.6a128,128,0,0,0,13.85.06c-.29,2.75,1.14,5.75,4.12,6.32h0c-6.36,2.44-3.29,12.55,3.74,11l5.48-1.23a5.84,5.84,0,0,0,1.83-.73q9.48-2.55,19-5a5,5,0,0,0,.55.16,8.29,8.29,0,0,0,4.8-.51A317.18,317.18,0,0,0,926.25,426a5,5,0,0,0,3.85-3.65q33.46-1.85,66.81-5.69c7.31-.84,7.58-11.07,0-11.59-2.16-.15-4.31-.27-6.46-.4,7.24-1.53,3.95-12.19-3.22-11.15a161.38,161.38,0,0,1-24.74,1.66l26.85-8.52c6-1.92,5.22-11.56-1.55-11.39l-8.14.2,2.43-.5c6.36-1.35,5-11.72-1.54-11.39-3.5.18-7,.39-10.5.61a5.64,5.64,0,0,0-2.34-.21l-3,.33a5,5,0,0,0-4.06-1.63l-12.66.57a2.49,2.49,0,0,0-.11-.29q32.65-4.85,65.16-10.57C1019.37,351.22,1018,340.4,1011.45,341ZM853.54,377l.64-.63.25,0a5.6,5.6,0,0,0,5.59,2.23l-3.76.65A4.83,4.83,0,0,0,853.54,377Zm15.85-54.76-.35,0q-3.54-.23-7.06-.54c2.73-.8,5.47-1.61,8.21-2.39A5.39,5.39,0,0,0,869.39,322.2Zm38,46.34c2.14-.28,4.28-.55,6.41-.84,0,.26.09.51.15.76-2.29.1-4.59.16-6.88.23ZM876.86,375a3.91,3.91,0,0,0,0,.48q-6.3,1.14-12.57,2.37l-3.77.61Q868.73,376.73,876.86,375Zm34.6,27.09a6.48,6.48,0,0,0-.18,2.24l-7.9.32C906.06,403.73,908.75,402.87,911.46,402.05Zm17.4-126.75c1.13-.46,2.28-.89,3.47-1.26l.45-.16,3.71-1.06a6.16,6.16,0,0,0-.17,1.4Q932.59,274.7,928.86,275.3ZM878.19,395.64h1.72L875,397.51a6.27,6.27,0,0,0-1-1.43Zm44.32-133.76,4.51-2.35a6.38,6.38,0,0,0,.82.33l2.61.73Zm18.72-40.38a5.09,5.09,0,0,0-1.94-1.94c1.54-1.48,3.1-2.91,4.7-4.32C943.11,217.34,942.18,219.43,941.23,221.5ZM902.9,169.14a5.46,5.46,0,0,0-3.54-3.58q3.78-1.26,7.54-2.64a6,6,0,0,0,2.83-2.18l.16-.05c.74.2,1.49.38,2.24.56A50,50,0,0,1,902.9,169.14Zm-52.12,19.13a7.09,7.09,0,0,0,.1,3c-2.9.22-5.79.43-8.69.63Q846.46,190,850.78,188.27Zm-17,171.48,20.68-.44-.6.67q-19.67,2.55-39.41,4.38,7.57-3.35,15.3-6.36A5.17,5.17,0,0,0,833.81,359.75Z"/><path class="cls-7" d="M764,343s5.94,32.63,2.67,33.55c0,0-15.43,6.79-14.56,11.14,0,0-4,16,23.84,19.49,0,0,28.06-.78,41.25,16,0,0,24.27-33.31,29.59-32,0,0,22.14-11.85,6.43-21.25,0,0-12.19,6.95-12.77-25.41,0,0-15.45,29.42-34.75,27.4C805.7,372,791.4,377.77,764,343Z"/><path class="cls-7" d="M720.09,315s-11.29-99.73,6.37-130.13c0,0,22.33-37.71,32.17-40.46,0,0,27.46-10.52,46.87-10.64,0,0,27.91,2.44,34.17,28.62,0,0,29,68.25,29.17,130.78,0,0-19.22,36.73-31.63,55.91-4,6.25-7.36,10.63-9.06,11.29,0,0-9,11.25-22.15,10.59,0,0-15.57,4.61-42-29C764.05,341.93,721.22,314,720.09,315Z"/><path class="cls-8" d="M767.32,369.36a5.62,5.62,0,0,0,4.5.31s-3.83,12.67,7.82,15.38c0,0,2.14.11.54,10.74l4,5.55s1.8-14.91-2.27-19.39c0,0-10.79,1.61-6.9-12.12,0,0,.21-4.28-.86-4.33H767Z"/><path class="cls-8" d="M841.15,354.82l1.28,6.53s-12.2,4.84-12.35,8.07c0,0,3.82,9.89.39,14,0,0-4.51,4.09-7.74,3.94,0,0-2.63,9.57-1.71,12.85l-4-5.59s-.7-7.58,3.81-11.67c0,0,8.6.42,7.68-2.86,0,0-3.77-11-1.51-13C827,367.11,839.65,354.7,841.15,354.82Z"/><path d="M762.59,341l-5.93-3.84s-2.37-97.85,2.68-99.61l3.45,8.94S760,330.81,762.59,341Z"/><path d="M784.56,286.34l5,10.64s-3.1,68.87-1.69,68.58l-5.53-4.74S785.58,287.47,784.56,286.34Z"/><path class="cls-9" d="M815,136s-.31,29.43,11.33,55.87c0,0-.4,30.16-1.47,30.11,0,0,20.65,97.93,26,104.17l3.2-5.71s-23.28-86.31-21.42-102.39c0,0,2.29-24.68-6.49-43.44,0,0-6.51-35.67-4.54-35.69Z"/><path d="M827.47,361.15s-15-72.36-12.56-100.27L809,228.25s3.33-.92,4-3.58c0,0,8.37,37.6,8.26,39.75,0,0,6.32,94.12,9.5,93.72Z"/><path class="cls-9" d="M842.62,169.8s-2.85,34.62,4.28,65.16c0,0,18.51,64.5,16.07,69.24l-2.19,4S830.19,182.83,840.22,163.7Z"/><path class="cls-9" d="M726.08,318S740.93,199.1,729.41,180L733,174.5s11.37,8.89-3,145.77Z"/><path class="cls-9" d="M742.32,160.82s12.42,45.33-2.24,165.73L744,329s15.87-162,1.73-172.59Z"/><path class="cls-10" d="M749.32,152s7.15,36.45,3.55,43.82c0,0-2,19.3,7.52,44.56,0,0,24.94,41.11,23.65,45.36,0,0,12.73,43.36,16.19,85.22,0,0,3.31.89,4.44-.13,0,0,5.1-60.12,5.58-69.79,0,0-3.25-21.72-5.25-25.05,0,0,5.6-48.24,7.86-50.29,0,0,3.07-40.81,2.42-49.46,0,0-1.09-33.47-9-42.49,0,0-6.72,33.09-7.3,44.92,0,0,7.62,42.42,1.61,55.06,0,0-8.63,22.21-7.92,29.79,0,0-12.88-23.26-13.69-28.69,0,0-14.55-33.06-13.55-53.49C765.44,181.38,761.78,155.35,749.32,152Z"/><polygon class="cls-9" points="746.59 302.27 754.85 287.58 760.72 299.73 769.91 288.32 778.09 297.35 782.97 285.73 792.12 296.95 798.02 286.46 805.13 295.44 809.91 285.97 815.94 294.89 819.64 285.37 825.72 293.21 828.35 283.64 835.35 294.76 838.03 284.11 848.36 293.24 852.27 279.42 853.29 280.55 849.33 295.44 839 286.31 835.24 296.91 828.24 285.79 825.67 294.29 819.59 286.44 815.83 297.04 809.86 287.04 805.08 296.51 797.97 287.54 792.07 298.03 782.86 287.88 778.04 298.42 769.8 290.47 760.67 300.81 754.75 289.74 746.59 302.27"/><polygon class="cls-9" points="747.16 290.44 755.19 302.69 762.33 289.03 770.35 301.28 777.54 286.54 785.41 302.02 791.57 286.15 799.44 301.62 804.53 285.7 810.19 302.15 815.34 285.15 821.11 299.45 825.02 285.63 830.78 299.93 834.75 285.03 842.61 300.5 845.66 282.33 856.96 293.66 857.07 291.51 844.64 281.2 842.72 298.35 834.85 282.88 830.89 297.77 825.12 283.48 821.26 296.23 815.44 283 810.3 300 804.64 283.55 799.6 298.4 791.68 284 785.51 299.87 777.64 284.39 770.46 299.13 762.43 286.88 755.29 300.54 747.16 290.44"/><path class="cls-9" d="M768.89,140.89s3.8,2,5.25,38.46v.3a8.26,8.26,0,0,1,5.48-1.89s.4-23.16-6-38.29Z"/><path class="cls-9" d="M788.57,135.75s-7.47,11.9-4.71,21.74c0,0,4.48,18.55,7.65,19.78,0,0-5.32-1.34-5.37-.26,0,0-10.93-32.36-2.13-40.27Z"/><path class="cls-9" d="M800.37,134s-8.25,8.8-2.74,28.48c0,0,3.67,13.11,2.43,16.29a21.58,21.58,0,0,0-5.32-1.34s-7.39-40,1.2-42.93Z"/><path class="cls-9" d="M837.49,348.52S815.85,220,814.76,220c0,0,4.54-3.05,4.59-4.14,0,0,19.54,130.5,19.16,131.19Z"/><path class="cls-9" d="M733.16,345.27l16.89,7.3s-.54,22.07-47.83,41.31c0,0-25.11,6.32-29.78,13.64,0,0,20.52-22.71,49.22-36.4C721.66,371.12,737.45,356.8,733.16,345.27Z"/><path d="M713.62,326l10,16.66s-7.48-1.45-14.46,9c0,0-5.24,19.15-32.13,17.83,0,0-31-4.75-39,3.48,0,0,13.8-17.65,44-17.25,0,0,19.09,6.33,20.85-7.6C702.84,348.1,709.32,325.78,713.62,326Z"/><path d="M707.25,302l1,23.77s-13.61-8.22-39,3.48c0,0-19.52,2.28-29.74-9,0,0-12.59-7.09-19.15-5.25,0,0,13.38-9,40-1.28C660.33,313.68,703.34,315.78,707.25,302Z"/><path d="M707.36,299.81l-1-23.76s-28.65,12.61-52,6.07c0,0-33.66,4.82-33.29-2.7,0,0,7.82,16.55,38.08,14.8C659.12,294.22,701.49,287.67,707.36,299.81Z"/><path d="M701.31,269.33s6.22-16.94,4.17-19.2c0,0-40.47,12-48.76,5.16,0,0-32.26-1.58-37.75.31,0,0,33.73,15.66,47.92,12C666.89,267.65,700.44,265,701.31,269.33Z"/><path d="M704.62,245.78,707,220s-32.73,8.1-51.83,1.78c0,0-21.45-2.13-34.78,5.84,0,0,50,14.3,58.89,8.27C679.23,235.91,702.94,236,704.62,245.78Z"/><path d="M707.22,214.64l4.12-18.12s-14.61,12.22-39.69-4.1c0,0-18.17-3-38.27,11.06,0,0,9.47,4.78,37.64,1.85C671,205.33,706.46,208.14,707.22,214.64Z"/><path d="M712.73,190.12l5-13.77s-52.83-22-50.2-31.56c0,0-2.91-6.61-15.71-9.4,0,0,4.43,19.63,35.58,43.79C687.39,179.18,711.05,180.34,712.73,190.12Z"/><path d="M718,171l7.95-8.23s-16.49-37.46-45.45-62.59c0,0,4.33,21.77,22.63,44.22C703.11,144.37,718.72,155.92,718,171Z"/><path d="M729.42,157.52l11.28-10.23s-15.19-20.14-16.39-39.61c0,0-3.35-19.57-14.76-28.75,0,0,1.59,33.5,10.43,51.18C720,130.11,734.14,149.13,729.42,157.52Z"/><path d="M745.16,144.28l16.66-10s-26-42.23-26-63.79C735.83,70.52,735.9,135.2,745.16,144.28Z"/><path class="cls-11" d="M770.63,130.43,789,129.18S770.27,93.76,787.45,73C787.45,73,763.18,106.35,770.63,130.43Z"/><path class="cls-11" d="M796.6,128.47l10.65,2.68s.52-10.76,9.81-24.32c0,0,5.2-18.07-.73-29.14,0,0-2-3.33,2.73-11.72,0,0-14.4,7.92-10.84,23.18,0,0,4.71,8.42-.65,21.53l-.45,1.06C801.06,125.45,797,120.94,796.6,128.47Z"/><path class="cls-11" d="M813.7,131.46l10.54,4.83s26.63-37.5,33.32-64.13C857.56,72.16,826.76,128.87,813.7,131.46Z"/><path class="cls-11" d="M830.54,139.83l7.1,9s7.51-21.19,40.61-36.82c0,0,18.6-5.55,19.13-16.31,0,0-35,11.22-43.21,23.76C854.17,119.43,835.86,141.17,830.54,139.83Z"/><path class="cls-11" d="M839.58,153.21l3.78,11s6.71-5.07,18.44-2.34c0,0,33.55-2.67,38.8-21.81,0,0-23.69,21.48-38.38,13.21C862.22,153.24,841.94,149,839.58,153.21Z"/><path class="cls-11" d="M848.42,170.89l1.78,7.63S880.05,185.38,897,170c0,0,16.87-14.26,27.31-7.28,0,0-11.52-7-29.14.73C895.14,163.48,869.51,180.55,848.42,170.89Z"/><path class="cls-11" d="M855.16,187.39l.6,9.73s32.81,12.39,45.17,2.21c0,0,19.07-15.23,28.9-18,0,0-29.3,4-32.89,11.33C896.94,192.67,888.68,207.36,855.16,187.39Z"/><path class="cls-11" d="M858.56,205.88,861.11,220s22.37,5.41,50.86-4c0,0,22.19-12.92,41.49-10.9,0,0-23.39-6.54-47.63,4.14C905.83,209.28,870.73,221.57,858.56,205.88Z"/><path class="cls-11" d="M864.88,231l3.57,15.26s71.45-6.2,70.84-15.93c0,0,7.09-12.59,27.78-17,0,0-23.76,1-41.49,10.91C925.58,224.26,893.5,241,864.88,231Z"/><path class="cls-11" d="M871.25,255l.44,13s40.32-8.8,54.09-3.82c0,0,20.59-2.22,35.2-14.45,0,0-7.89,7.16-43.38,5.43C917.6,255.13,874.11,262.7,871.25,255Z"/><path class="cls-11" d="M872.63,292.81,876.54,279s-.78,16.13,42,2.05c0,0,29.64-9,35.7,12.52.1.36.28,1.1.28,1.1s-5.56-18.6-58.12-1.77C896.35,292.89,876.57,300.55,872.63,292.81Z"/><path class="cls-11" d="M871,303.51l-8.26,14.69s39.73,3,54.53,9.14c0,0,27-1.91,33.78,14.59,0,0,.24-26.94-36.32-28.73C914.76,313.2,876.75,318.88,871,303.51Z"/><path class="cls-11" d="M862.29,327.88l-9.13,10.33s19.1,6.33,21,11.81,53.06-4.95,63.29,6.33c0,0-4.64-15.32-50.83-18.66C886.61,337.69,875.48,344.69,862.29,327.88Z"/><path class="cls-11" d="M846.94,355.15l4.83-10.54s26.33,34.71,54.82,25.32c0,0,30.58-8.2,44.59,14,0,0-38-17-47.06-7.69C904.12,376.28,855.62,376.06,846.94,355.15Z"/><path class="cls-12" d="M730.31,216.31s9-7.1,11.07-5.92c0,0,17,6.22,21.09,9.65,0,0,19.7,16.06,30.61,13.36,0,0,13-1.52,26.81-19.17,0,0,2.72-3.38,6.5-7.52l.39-.43c6-6.54,14.47-14.72,19-14.5,0,0-15.21,2.49-34-9.21,0,0-24-16.27-47.59,3.06C764.15,185.63,733.49,217.55,730.31,216.31Z"/><path class="cls-12" d="M761.08,188.8s.47,28.93,1.67,31.47c0,0,19.21,14,26.67,13.4,0,0,8.25,1.31,24.66-12.85,0,0,7.19-9.37,8.47-9.77,0,0,2.77-22.54-1.16-23.48l-7.52-3.73-5.28-3-4.84-2.06s-11.94-3-13.42-2.57c0,0-10.89,0-14.38,2.49C776,178.66,766.57,182.14,761.08,188.8Z"/><path class="cls-12" d="M791.2,183.72s-18.18-3-22.46,18.31,21.64,20.46,21.64,20.46,22.69-1.05,22.51-19.38S791.2,183.72,791.2,183.72Z"/><path class="cls-12" d="M789.86,189.05s-10.81.54-12.52,13.4,12.23,14.61,12.23,14.61,12.9.63,13.58-13.35S789.86,189.05,789.86,189.05Z"/><path class="cls-13" d="M791.93,212.86s-7.58.71-9.31-8c0,0,.42-8.6,6.92-9.36,0,0,6.51-.76,8.24,7.95S791.93,212.86,791.93,212.86Z"/><path class="cls-12" d="M831.64,201.23s2.24-9-.11-10.43l-9.83-3.1s4.6,16.6,1.06,22.9Z"/><path class="cls-12" d="M751.25,198.67s-3.13,11.84-1.53,15l5.23,2.27,7.15,3.84.88.85-1.61-19.74s-.5-11.81.3-12.76Z"/><polyline class="cls-8" points="789.36 380.04 800.13 392.96 794.74 396.19 807.66 408.03"/><polyline class="cls-8" points="804.43 387.57 805.51 376.81 813.05 387.57"/><line class="cls-8" x1="800.13" y1="382.19" x2="817.35" y2="380.04"/></svg>